<?xml version="1.0" encoding="utf-8"?>
<!-- Generator: Adobe Illustrator 24.3.0, SVG Export Plug-In . SVG Version: 6.00 Build 0)  -->
<svg version="1.1" id="Capa_1" xmlns="http://www.w3.org/2000/svg" xmlns:xlink="http://www.w3.org/1999/xlink" x="0px" y="0px"
	 viewBox="0 0 400 300" style="enable-background:new 0 0 400 300;" xml:space="preserve">
<style type="text/css">
	.st0{fill:#E30613;stroke:#E30613;stroke-miterlimit:10;}
	.st1{fill:url(#SVGID_1_);}
	.st2{fill:none;stroke:#E30613;stroke-miterlimit:10;}
</style>
<path class="st0" d="M128.89,143.48H54.9c-5.94,0-10.76-4.82-10.76-10.76V54.7c0-5.94,4.82-10.76,10.76-10.76h73.99
	c5.94,0,10.76,4.82,10.76,10.76v78.03C139.65,138.67,134.83,143.48,128.89,143.48z"/>
<linearGradient id="SVGID_1_" gradientUnits="userSpaceOnUse" x1="271.9372" y1="192.0762" x2="337.7656" y2="192.0762">
	<stop  offset="0.2657" style="stop-color:#E30613"/>
	<stop  offset="0.3577" style="stop-color:#E30A17"/>
	<stop  offset="0.4508" style="stop-color:#E51622"/>
	<stop  offset="0.5445" style="stop-color:#E72B36"/>
	<stop  offset="0.6387" style="stop-color:#EA4751"/>
	<stop  offset="0.7331" style="stop-color:#EE6C73"/>
	<stop  offset="0.8279" style="stop-color:#F3999E"/>
	<stop  offset="0.9211" style="stop-color:#F9CDCF"/>
	<stop  offset="1" style="stop-color:#FFFFFF"/>
</linearGradient>
<path class="st1" d="M327,226.38h-44.3c-5.94,0-10.76-4.82-10.76-10.76v-47.09c0-5.94,4.82-10.76,10.76-10.76H327
	c5.94,0,10.76,4.82,10.76,10.76v47.09C337.77,221.56,332.95,226.38,327,226.38z"/>
<path class="st0" d="M91.22,179.02"/>
<path class="st2" d="M91.22,140.91c0,0-16.59,14.35-6.73,40.36s44.39,21.08,57.85,1.35s15.25-41.26,29.6-56.05
	s34.98-27.8,60.99-18.83s30.04,31.84,23.32,46.19c-6.73,14.35-5.38,17.04-22.87,35.87s47.98,0.25,47.98,0.25"/>
</svg>
